<svg width="32" height="33" viewBox="0 0 32 33" fill="none" xmlns="http://www.w3.org/2000/svg">
<g clip-path="url(#clip0_1_494)">
<path d="M16 3.66675C23.364 3.66675 29.3334 9.63608 29.3334 17.0001C29.3334 24.3641 23.364 30.3334 16 30.3334C8.63602 30.3334 2.66669 24.3641 2.66669 17.0001C2.66669 9.63608 8.63602 3.66675 16 3.66675ZM15.0574 12.2854L11.2854 16.0574C11.0354 16.3075 10.895 16.6465 10.895 17.0001C10.895 17.3536 11.0354 17.6927 11.2854 17.9427L15.0574 21.7147C15.3074 21.9647 15.6465 22.1051 16 22.1051C16.3536 22.1051 16.6926 21.9647 16.9427 21.7147L20.7147 17.9427C20.9646 17.6927 21.1051 17.3536 21.1051 17.0001C21.1051 16.6465 20.9646 16.3075 20.7147 16.0574L16.9427 12.2854C16.6926 12.0355 16.3536 11.895 16 11.895C15.6465 11.895 15.3074 12.0355 15.0574 12.2854Z" fill="#006E41"/>
</g>
<defs>
<clipPath id="clip0_1_494">
<rect width="32" height="32" fill="white" transform="translate(0 0.5)"/>
</clipPath>
</defs>
</svg>